<mxfile host="65bd71144e">
    <diagram id="2M7lc25zfsEQLE7XBkQ4" name="Page-1">
        <mxGraphModel dx="2533" dy="811" grid="1" gridSize="10" guides="1" tooltips="1" connect="1" arrows="1" fold="1" page="1" pageScale="1" pageWidth="850" pageHeight="1100" background="#ffffff" math="0" shadow="0">
            <root>
                <mxCell id="0"/>
                <mxCell id="1" parent="0"/>
                <mxCell id="6" value="" style="ellipse;whiteSpace=wrap;html=1;aspect=fixed;fillColor=#1ba1e2;fontColor=#ffffff;strokeColor=#006EAF;" parent="1" vertex="1">
                    <mxGeometry x="237" y="520" width="50" height="50" as="geometry"/>
                </mxCell>
                <mxCell id="8" value="" style="endArrow=none;html=1;entryX=0;entryY=0.5;entryDx=0;entryDy=0;strokeColor=#999999;strokeWidth=2;exitX=1;exitY=0.5;exitDx=0;exitDy=0;" parent="1" source="13" target="6" edge="1">
                    <mxGeometry width="50" height="50" relative="1" as="geometry">
                        <mxPoint x="164.5" y="480" as="sourcePoint"/>
                        <mxPoint x="124.5" y="580" as="targetPoint"/>
                    </mxGeometry>
                </mxCell>
                <mxCell id="9" value="main" style="rounded=1;whiteSpace=wrap;html=1;fillColor=#76608a;strokeColor=#432D57;fontColor=#ffffff;fontSize=20;arcSize=0;" parent="1" vertex="1">
                    <mxGeometry x="97" y="390" width="85" height="30" as="geometry"/>
                </mxCell>
                <mxCell id="10" value="" style="endArrow=classic;html=1;fontSize=20;exitX=0.5;exitY=1;exitDx=0;exitDy=0;entryX=0.5;entryY=0;entryDx=0;entryDy=0;strokeColor=#999999;" parent="1" source="9" edge="1">
                    <mxGeometry width="50" height="50" relative="1" as="geometry">
                        <mxPoint x="104.5" y="440" as="sourcePoint"/>
                        <mxPoint x="139.5" y="450" as="targetPoint"/>
                    </mxGeometry>
                </mxCell>
                <mxCell id="11" value="dev" style="rounded=1;whiteSpace=wrap;html=1;fillColor=#6d8764;strokeColor=#3A5431;fontColor=#ffffff;fontSize=20;arcSize=0;" parent="1" vertex="1">
                    <mxGeometry x="219.5" y="600" width="85" height="30" as="geometry"/>
                </mxCell>
                <mxCell id="12" value="" style="endArrow=classic;html=1;fontSize=20;exitX=0.5;exitY=0;exitDx=0;exitDy=0;strokeColor=#999999;entryX=0.5;entryY=1;entryDx=0;entryDy=0;" parent="1" source="11" target="6" edge="1">
                    <mxGeometry width="50" height="50" relative="1" as="geometry">
                        <mxPoint x="344.5" y="640" as="sourcePoint"/>
                        <mxPoint x="264.5" y="615" as="targetPoint"/>
                    </mxGeometry>
                </mxCell>
                <mxCell id="13" value="" style="ellipse;whiteSpace=wrap;html=1;aspect=fixed;fillColor=#1ba1e2;fontColor=#ffffff;strokeColor=#006EAF;" parent="1" vertex="1">
                    <mxGeometry x="114.5" y="450" width="50" height="50" as="geometry"/>
                </mxCell>
                <mxCell id="38" value="main" style="rounded=1;whiteSpace=wrap;html=1;fillColor=#76608a;strokeColor=#432D57;fontColor=#ffffff;fontSize=20;arcSize=0;" parent="1" vertex="1">
                    <mxGeometry x="97" y="120" width="85" height="30" as="geometry"/>
                </mxCell>
                <mxCell id="39" value="" style="endArrow=classic;html=1;fontSize=20;exitX=0.5;exitY=1;exitDx=0;exitDy=0;entryX=0.5;entryY=0;entryDx=0;entryDy=0;strokeColor=#999999;" parent="1" source="38" edge="1">
                    <mxGeometry width="50" height="50" relative="1" as="geometry">
                        <mxPoint x="104.5" y="170" as="sourcePoint"/>
                        <mxPoint x="139.5" y="180" as="targetPoint"/>
                    </mxGeometry>
                </mxCell>
                <mxCell id="42" value="" style="ellipse;whiteSpace=wrap;html=1;aspect=fixed;fillColor=#1ba1e2;fontColor=#ffffff;strokeColor=#006EAF;" parent="1" vertex="1">
                    <mxGeometry x="114.5" y="180" width="50" height="50" as="geometry"/>
                </mxCell>
                <mxCell id="43" value="" style="ellipse;whiteSpace=wrap;html=1;aspect=fixed;fontColor=#000000;strokeColor=#C73500;fillColor=#fa6800;" parent="1" vertex="1">
                    <mxGeometry x="906.5" y="180" width="50" height="50" as="geometry"/>
                </mxCell>
                <mxCell id="44" value="" style="endArrow=none;html=1;exitX=1;exitY=0.5;exitDx=0;exitDy=0;strokeWidth=2;entryX=0;entryY=0.5;entryDx=0;entryDy=0;strokeColor=#999999;" parent="1" source="51" target="43" edge="1">
                    <mxGeometry width="50" height="50" relative="1" as="geometry">
                        <mxPoint x="586.5" y="300" as="sourcePoint"/>
                        <mxPoint x="676.5" y="335" as="targetPoint"/>
                    </mxGeometry>
                </mxCell>
                <mxCell id="45" value="" style="ellipse;whiteSpace=wrap;html=1;aspect=fixed;fillColor=#1ba1e2;fontColor=#ffffff;strokeColor=#006EAF;" parent="1" vertex="1">
                    <mxGeometry x="739" y="250" width="50" height="50" as="geometry"/>
                </mxCell>
                <mxCell id="46" value="" style="endArrow=none;html=1;entryX=0;entryY=0.5;entryDx=0;entryDy=0;strokeColor=#999999;strokeWidth=2;exitX=1;exitY=0.5;exitDx=0;exitDy=0;" parent="1" source="51" target="45" edge="1">
                    <mxGeometry width="50" height="50" relative="1" as="geometry">
                        <mxPoint x="666.5" y="210" as="sourcePoint"/>
                        <mxPoint x="626.5" y="310" as="targetPoint"/>
                    </mxGeometry>
                </mxCell>
                <mxCell id="47" value="main" style="rounded=1;whiteSpace=wrap;html=1;fillColor=#76608a;strokeColor=#432D57;fontColor=#ffffff;fontSize=20;arcSize=0;" parent="1" vertex="1">
                    <mxGeometry x="889" y="120" width="85" height="30" as="geometry"/>
                </mxCell>
                <mxCell id="48" value="" style="endArrow=classic;html=1;fontSize=20;exitX=0.5;exitY=1;exitDx=0;exitDy=0;entryX=0.5;entryY=0;entryDx=0;entryDy=0;strokeColor=#999999;" parent="1" source="47" target="43" edge="1">
                    <mxGeometry width="50" height="50" relative="1" as="geometry">
                        <mxPoint x="896.5" y="170" as="sourcePoint"/>
                        <mxPoint x="931.5" y="180" as="targetPoint"/>
                    </mxGeometry>
                </mxCell>
                <mxCell id="49" value="dev" style="rounded=1;whiteSpace=wrap;html=1;fillColor=#6d8764;strokeColor=#3A5431;fontColor=#ffffff;fontSize=20;arcSize=0;" parent="1" vertex="1">
                    <mxGeometry x="889" y="260" width="85" height="30" as="geometry"/>
                </mxCell>
                <mxCell id="50" value="" style="endArrow=classic;html=1;fontSize=20;exitX=0.5;exitY=0;exitDx=0;exitDy=0;strokeColor=#999999;entryX=0.5;entryY=1;entryDx=0;entryDy=0;" parent="1" source="49" edge="1">
                    <mxGeometry width="50" height="50" relative="1" as="geometry">
                        <mxPoint x="1014" y="300" as="sourcePoint"/>
                        <mxPoint x="931.5" y="230" as="targetPoint"/>
                    </mxGeometry>
                </mxCell>
                <mxCell id="51" value="" style="ellipse;whiteSpace=wrap;html=1;aspect=fixed;fillColor=#1ba1e2;fontColor=#ffffff;strokeColor=#006EAF;" parent="1" vertex="1">
                    <mxGeometry x="616.5" y="180" width="50" height="50" as="geometry"/>
                </mxCell>
                <mxCell id="52" value="" style="endArrow=none;html=1;exitX=1;exitY=0.5;exitDx=0;exitDy=0;strokeWidth=2;entryX=0;entryY=0.5;entryDx=0;entryDy=0;strokeColor=#999999;" parent="1" source="45" target="43" edge="1">
                    <mxGeometry width="50" height="50" relative="1" as="geometry">
                        <mxPoint x="676.5" y="215" as="sourcePoint"/>
                        <mxPoint x="916.5" y="215" as="targetPoint"/>
                    </mxGeometry>
                </mxCell>
                <mxCell id="53" value="" style="shape=flexArrow;endArrow=classic;html=1;endWidth=26.59279778393352;endSize=12.863157894736844;width=26.315789473684212;strokeColor=#000000;" parent="1" edge="1">
                    <mxGeometry width="50" height="50" relative="1" as="geometry">
                        <mxPoint x="190" y="204.5" as="sourcePoint"/>
                        <mxPoint x="270" y="204.5" as="targetPoint"/>
                    </mxGeometry>
                </mxCell>
                <mxCell id="54" value="" style="shape=flexArrow;endArrow=classic;html=1;strokeColor=#000000;fillColor=#000000;" parent="1" edge="1">
                    <mxGeometry width="50" height="50" relative="1" as="geometry">
                        <mxPoint x="230" y="380" as="sourcePoint"/>
                        <mxPoint x="230" y="260" as="targetPoint"/>
                    </mxGeometry>
                </mxCell>
                <mxCell id="55" value="git push origin dev" style="text;html=1;align=center;verticalAlign=middle;resizable=0;points=[];autosize=1;strokeColor=none;fillColor=none;fontColor=#000000;fontSize=20;" parent="1" vertex="1">
                    <mxGeometry x="30" y="310" width="180" height="30" as="geometry"/>
                </mxCell>
                <mxCell id="56" value="" style="dashed=0;outlineConnect=0;html=1;align=center;labelPosition=center;verticalLabelPosition=bottom;verticalAlign=top;shape=mxgraph.weblogos.github;fontSize=15;" parent="1" vertex="1">
                    <mxGeometry x="-50" y="167.5" width="75" height="75" as="geometry"/>
                </mxCell>
                <mxCell id="57" value="" style="verticalLabelPosition=bottom;html=1;verticalAlign=top;align=center;strokeColor=none;fillColor=#00BEF2;shape=mxgraph.azure.laptop;pointerEvents=1;fontSize=15;" parent="1" vertex="1">
                    <mxGeometry x="-40" y="470" width="82" height="50" as="geometry"/>
                </mxCell>
                <mxCell id="58" value="" style="ellipse;whiteSpace=wrap;html=1;aspect=fixed;fillColor=#1ba1e2;fontColor=#ffffff;strokeColor=#006EAF;" vertex="1" parent="1">
                    <mxGeometry x="420" y="250" width="50" height="50" as="geometry"/>
                </mxCell>
                <mxCell id="59" value="" style="endArrow=none;html=1;entryX=0;entryY=0.5;entryDx=0;entryDy=0;strokeColor=#999999;strokeWidth=2;exitX=1;exitY=0.5;exitDx=0;exitDy=0;" edge="1" parent="1" source="64" target="58">
                    <mxGeometry width="50" height="50" relative="1" as="geometry">
                        <mxPoint x="347.5" y="210" as="sourcePoint"/>
                        <mxPoint x="307.5" y="310" as="targetPoint"/>
                    </mxGeometry>
                </mxCell>
                <mxCell id="60" value="main" style="rounded=1;whiteSpace=wrap;html=1;fillColor=#76608a;strokeColor=#432D57;fontColor=#ffffff;fontSize=20;arcSize=0;" vertex="1" parent="1">
                    <mxGeometry x="280" y="120" width="85" height="30" as="geometry"/>
                </mxCell>
                <mxCell id="61" value="" style="endArrow=classic;html=1;fontSize=20;exitX=0.5;exitY=1;exitDx=0;exitDy=0;entryX=0.5;entryY=0;entryDx=0;entryDy=0;strokeColor=#999999;" edge="1" parent="1" source="60">
                    <mxGeometry width="50" height="50" relative="1" as="geometry">
                        <mxPoint x="287.5" y="170" as="sourcePoint"/>
                        <mxPoint x="322.5" y="180" as="targetPoint"/>
                    </mxGeometry>
                </mxCell>
                <mxCell id="62" value="dev" style="rounded=1;whiteSpace=wrap;html=1;fillColor=#6d8764;strokeColor=#3A5431;fontColor=#ffffff;fontSize=20;arcSize=0;" vertex="1" parent="1">
                    <mxGeometry x="402.5" y="330" width="85" height="30" as="geometry"/>
                </mxCell>
                <mxCell id="63" value="" style="endArrow=classic;html=1;fontSize=20;exitX=0.5;exitY=0;exitDx=0;exitDy=0;strokeColor=#999999;entryX=0.5;entryY=1;entryDx=0;entryDy=0;" edge="1" parent="1" source="62" target="58">
                    <mxGeometry width="50" height="50" relative="1" as="geometry">
                        <mxPoint x="527.5" y="370" as="sourcePoint"/>
                        <mxPoint x="447.5" y="345" as="targetPoint"/>
                    </mxGeometry>
                </mxCell>
                <mxCell id="64" value="" style="ellipse;whiteSpace=wrap;html=1;aspect=fixed;fillColor=#1ba1e2;fontColor=#ffffff;strokeColor=#006EAF;" vertex="1" parent="1">
                    <mxGeometry x="297.5" y="180" width="50" height="50" as="geometry"/>
                </mxCell>
                <mxCell id="65" value="" style="shape=flexArrow;endArrow=classic;html=1;endWidth=26.59279778393352;endSize=12.863157894736844;width=26.315789473684212;strokeColor=#000000;fillColor=#000000;" edge="1" parent="1">
                    <mxGeometry width="50" height="50" relative="1" as="geometry">
                        <mxPoint x="500" y="204.5" as="sourcePoint"/>
                        <mxPoint x="580" y="204.5" as="targetPoint"/>
                    </mxGeometry>
                </mxCell>
                <mxCell id="66" value="PR &amp;amp; Merge" style="text;html=1;align=center;verticalAlign=middle;resizable=0;points=[];autosize=1;strokeColor=none;fillColor=none;fontColor=#000000;fontSize=20;" vertex="1" parent="1">
                    <mxGeometry x="480" y="137.5" width="120" height="30" as="geometry"/>
                </mxCell>
            </root>
        </mxGraphModel>
    </diagram>
</mxfile>